# xmcd
#
# Track frame offsets: 
#        150
#        56312
#        143135
#        170387
#
# Disc length: 3083 seconds
#
# Revision: 1
# Processed by: cddbd v1.5.2PL0 Copyright (c) Steve Scherf et al.
# Submitted via: ExactAudioCopy v0.99pb4
#
DISCID=2c0c0904
DTITLE=Mal Waldron - Hard Talk
DYEAR=1974
DGENRE=Jazz
TTITLE0=Snake Out
TTITLE1=Hard Talk
TTITLE2=Russian Melody
TTITLE3=Hooray for Herbie
EXTD=YEAR: 1974
EXTT0=
EXTT1=
EXTT2=
EXTT3=
PLAYORDER=
